<?xml version="1.0" standalone="no"?>
<!DOCTYPE svg PUBLIC "-//W3C//DTD SVG 20010904//EN"
 "http://www.w3.org/TR/2001/REC-SVG-20010904/DTD/svg10.dtd">
<svg version="1.0" xmlns="http://www.w3.org/2000/svg"
 width="512.000000pt" height="512.000000pt" viewBox="0 0 512.000000 512.000000"
 preserveAspectRatio="xMidYMid meet">

<g transform="translate(0.000000,512.000000) scale(0.100000,-0.100000)"
fill="#000000" stroke="none">
<path d="M2370 5113 c-379 -36 -661 -116 -980 -278 -378 -193 -717 -497 -965
-865 -104 -156 -232 -419 -294 -605 -49 -150 -89 -321 -113 -490 -17 -118 -17
-512 0 -630 42 -295 120 -553 242 -800 137 -280 272 -468 494 -691 221 -220
412 -357 681 -489 188 -92 309 -137 500 -185 500 -126 1002 -102 1490 71 149
53 407 182 540 271 299 199 573 480 769 788 72 113 188 353 235 486 235 662
194 1372 -115 1993 -124 250 -263 447 -458 648 -216 224 -428 378 -711 518
-296 146 -572 225 -900 255 -102 9 -333 11 -415 3z m473 -224 c907 -111 1668
-742 1951 -1616 125 -389 145 -822 55 -1226 -73 -331 -237 -673 -455 -949 -74
-94 -278 -298 -372 -372 -345 -272 -752 -442 -1190 -497 -222 -28 -548 -11
-784 42 -235 52 -514 165 -717 292 -206 128 -467 359 -605 535 -273 347 -441
751 -497 1190 -16 125 -16 419 0 547 41 332 165 683 339 963 171 275 456 564
724 736 165 105 363 198 558 261 176 57 345 89 580 109 67 6 319 -3 413 -15z"/>
<path d="M1765 3815 c-277 -61 -488 -273 -566 -570 -26 -102 -29 -278 -5 -380
23 -99 70 -210 119 -282 52 -76 1171 -1277 1204 -1292 30 -14 56 -14 86 0 33
15 1152 1216 1204 1292 89 131 135 290 135 467 -1 283 -141 542 -366 679 -201
121 -492 134 -698 30 -96 -48 -144 -84 -235 -178 l-83 -86 -83 86 c-46 47
-105 101 -131 118 -69 48 -181 96 -263 115 -86 19 -234 20 -318 1z m235 -195
c38 -6 98 -27 146 -50 73 -36 96 -54 221 -184 141 -146 167 -165 219 -152 15
4 88 70 172 155 123 125 158 154 212 179 294 136 615 -5 727 -318 35 -97 43
-255 19 -349 -21 -81 -51 -151 -90 -205 -35 -49 -1055 -1146 -1066 -1146 -11
0 -1031 1097 -1066 1146 -75 105 -108 226 -102 373 5 129 35 223 104 323 97
143 241 224 419 236 11 1 49 -3 85 -8z"/>
</g>
</svg>
