<?xml version="1.0" standalone="no"?>
<!DOCTYPE svg PUBLIC "-//W3C//DTD SVG 20010904//EN"
 "http://www.w3.org/TR/2001/REC-SVG-20010904/DTD/svg10.dtd">
<svg version="1.0" xmlns="http://www.w3.org/2000/svg"
 width="512.000000pt" height="512.000000pt" viewBox="0 0 512.000000 512.000000"
 preserveAspectRatio="xMidYMid meet">

<g transform="translate(0.000000,512.000000) scale(0.100000,-0.100000)"
fill="#000000" stroke="none">
<path d="M1245 4409 c-278 -35 -443 -171 -517 -426 -21 -71 -23 -99 -23 -303
0 -205 2 -232 23 -305 66 -227 206 -361 432 -412 107 -24 444 -24 550 0 177
40 317 142 385 281 45 93 63 164 77 314 12 136 1 319 -28 427 -39 148 -138
282 -251 343 -150 79 -404 111 -648 81z m350 -319 c130 -19 209 -75 235 -169
39 -138 34 -408 -11 -511 -50 -116 -126 -145 -379 -145 -208 0 -278 15 -340
74 -57 54 -72 114 -77 306 -10 373 58 450 402 454 55 0 132 -4 170 -9z"/>
<path d="M2813 3819 c-107 -53 -118 -201 -21 -271 l33 -23 739 -3 739 -2 42
24 c100 59 101 196 2 270 -28 21 -35 21 -760 24 -726 2 -732 2 -774 -19z"/>
<path d="M3475 2170 c-268 -42 -439 -188 -500 -425 -28 -109 -39 -292 -27
-427 20 -212 63 -326 162 -432 118 -126 304 -186 575 -186 347 0 558 100 661
314 57 119 69 192 69 436 0 195 -2 223 -23 295 -65 225 -206 361 -427 411 -83
18 -401 27 -490 14z m449 -336 c78 -23 128 -71 151 -144 13 -40 19 -100 22
-215 7 -249 -25 -358 -119 -406 -56 -29 -173 -48 -288 -48 -246 -1 -364 52
-400 178 -24 83 -33 237 -22 350 18 179 64 254 175 285 79 23 100 24 267 21
114 -2 171 -8 214 -21z"/>
<path d="M776 1577 c-101 -58 -102 -197 -3 -271 28 -21 36 -21 759 -24 724 -2
731 -2 774 19 108 52 120 201 22 271 l-33 23 -740 2 -740 3 -39 -23z"/>
</g>
</svg>
