<?xml version="1.0" standalone="no"?>
<!DOCTYPE svg PUBLIC "-//W3C//DTD SVG 20010904//EN"
 "http://www.w3.org/TR/2001/REC-SVG-20010904/DTD/svg10.dtd">
<svg version="1.0" xmlns="http://www.w3.org/2000/svg"
 width="5200.000000pt" height="1170.000000pt" viewBox="0 0 5200.000000 1170.000000"
 preserveAspectRatio="xMidYMid meet">

<g transform="translate(0.000000,1170.000000) scale(0.100000,-0.100000)"
fill="#14b8a6" stroke="none">
<path d="M7580 9999 c-14 -6 -46 -20 -72 -32 -27 -11 -48 -24 -48 -29 0 -4 -6
-8 -13 -8 -18 0 -67 -24 -67 -32 0 -5 -6 -8 -13 -8 -18 0 -67 -24 -67 -32 0
-5 -9 -8 -20 -8 -11 0 -20 -4 -20 -8 0 -5 -22 -19 -50 -32 -27 -13 -50 -27
-50 -32 0 -4 -9 -8 -20 -8 -11 0 -20 -3 -20 -7 0 -5 -23 -19 -50 -32 -28 -14
-50 -29 -50 -33 0 -4 -9 -8 -19 -8 -11 0 -21 -4 -23 -8 -1 -5 -41 -29 -88 -53
-47 -24 -86 -47 -88 -51 -2 -5 -12 -8 -22 -8 -10 0 -20 -3 -22 -7 -1 -5 -41
-28 -88 -52 -91 -48 -120 -64 -190 -105 -25 -14 -62 -34 -82 -43 -21 -10 -38
-21 -38 -25 0 -5 -9 -8 -19 -8 -11 0 -21 -3 -23 -8 -3 -6 -99 -60 -155 -87
-13 -5 -23 -13 -23 -17 0 -5 -6 -8 -13 -8 -18 0 -67 -24 -67 -32 0 -5 -9 -8
-19 -8 -11 0 -21 -4 -23 -9 -1 -5 -21 -17 -43 -28 -79 -39 -130 -68 -133 -75
-2 -5 -12 -8 -22 -8 -10 0 -20 -3 -22 -7 -1 -5 -23 -19 -48 -32 -25 -13 -63
-33 -85 -45 -22 -11 -41 -24 -43 -28 -2 -5 -12 -8 -22 -8 -10 0 -20 -4 -22 -8
-1 -5 -41 -29 -88 -53 -47 -24 -86 -47 -88 -51 -2 -5 -12 -8 -23 -8 -10 0 -19
-4 -19 -10 0 -5 -9 -10 -20 -10 -11 0 -20 -4 -20 -9 0 -5 -8 -11 -17 -14 -24
-8 -186 -96 -197 -108 -6 -5 -18 -9 -27 -9 -10 0 -19 -4 -21 -8 -1 -5 -41 -29
-88 -53 -47 -24 -87 -46 -90 -49 -3 -3 -34 -21 -70 -39 -36 -19 -66 -38 -68
-43 -2 -4 -11 -8 -21 -8 -9 0 -21 -4 -27 -9 -12 -12 -57 -37 -185 -102 -57
-30 -105 -57 -107 -61 -2 -4 -12 -8 -22 -8 -10 0 -20 -3 -22 -7 -1 -5 -23 -18
-48 -31 -79 -41 -125 -67 -130 -73 -3 -3 -43 -26 -90 -50 -47 -24 -87 -46 -90
-49 -5 -5 -71 -41 -175 -94 -22 -12 -41 -24 -43 -28 -2 -5 -12 -8 -22 -8 -10
0 -20 -3 -22 -7 -1 -5 -41 -28 -88 -52 -47 -24 -87 -48 -88 -53 -2 -4 -12 -8
-22 -8 -10 0 -20 -3 -22 -7 -1 -5 -22 -18 -45 -30 -24 -13 -62 -33 -85 -45
-24 -13 -44 -26 -46 -30 -2 -5 -12 -8 -22 -8 -10 0 -20 -4 -22 -8 -1 -5 -59
-38 -128 -73 -69 -35 -126 -67 -128 -71 -2 -5 -12 -8 -23 -8 -10 0 -19 -3 -19
-7 0 -5 -10 -13 -23 -19 -59 -28 -152 -80 -155 -86 -2 -5 -12 -8 -22 -8 -10 0
-20 -4 -22 -8 -1 -5 -41 -29 -88 -53 -47 -24 -86 -47 -88 -51 -2 -5 -12 -8
-23 -8 -10 0 -19 -4 -19 -10 0 -5 -9 -10 -20 -10 -11 0 -20 -4 -20 -10 0 -5
-9 -10 -19 -10 -11 0 -21 -3 -23 -7 -1 -5 -28 -21 -58 -37 -30 -16 -82 -43
-115 -61 -33 -18 -96 -52 -140 -76 -44 -23 -81 -46 -83 -51 -2 -4 -12 -8 -22
-8 -10 0 -20 -3 -22 -7 -1 -5 -24 -19 -50 -32 -27 -13 -48 -28 -48 -33 0 -4
-9 -8 -20 -8 -11 0 -20 -4 -20 -8 0 -4 -22 -19 -50 -33 -27 -13 -50 -27 -50
-31 0 -5 -6 -8 -13 -8 -7 0 -23 -9 -35 -20 -12 -11 -25 -20 -30 -20 -4 0 -17
-8 -28 -18 -10 -10 -35 -28 -54 -42 -93 -64 -320 -326 -320 -369 0 -6 -3 -11
-7 -11 -9 0 -33 -49 -33 -67 0 -7 -4 -13 -10 -13 -5 0 -10 -9 -10 -20 0 -11
-4 -20 -10 -20 -5 0 -10 -7 -10 -15 0 -8 -4 -23 -9 -33 -27 -54 -79 -204 -92
-267 -25 -124 -31 -156 -40 -215 -35 -244 -43 -473 -21 -615 7 -44 17 -109 22
-145 14 -104 28 -173 60 -300 6 -22 15 -59 21 -82 5 -24 13 -55 16 -71 3 -15
9 -30 14 -33 5 -3 9 -18 9 -35 0 -16 5 -29 10 -29 6 0 10 -7 10 -15 0 -9 9
-35 20 -57 11 -23 20 -48 20 -55 0 -7 5 -13 10 -13 6 0 10 -9 10 -20 0 -11 3
-20 8 -20 4 0 12 -10 17 -23 16 -34 59 -111 65 -117 3 -3 17 -21 30 -40 13
-19 27 -37 30 -40 3 -3 17 -21 30 -40 33 -48 217 -230 262 -260 21 -14 38 -28
38 -31 0 -4 14 -12 30 -19 17 -7 30 -16 30 -20 0 -4 14 -13 30 -20 17 -7 30
-16 30 -19 0 -11 79 -51 99 -51 16 0 19 22 31 223 15 268 2 418 -40 457 -3 3
-17 21 -30 40 -14 19 -32 44 -42 54 -10 11 -18 25 -18 32 0 7 -3 14 -7 16 -8
3 -46 69 -68 115 -5 13 -13 23 -17 23 -5 0 -8 9 -8 20 0 11 -4 20 -10 20 -5 0
-10 8 -10 18 0 10 -4 22 -9 28 -11 10 -59 150 -73 209 -44 188 -52 274 -52
525 0 235 9 352 34 450 6 25 14 60 17 78 3 17 9 32 14 32 5 0 9 11 9 24 0 14
5 28 10 31 6 3 10 15 10 26 0 10 5 19 10 19 6 0 10 9 10 20 0 11 5 20 10 20 6
0 10 5 10 11 0 49 241 308 288 309 6 0 12 4 12 8 0 5 16 16 36 25 36 18 104
15 104 -4 0 -5 7 -9 15 -9 9 0 35 -9 57 -20 23 -11 46 -20 50 -20 5 0 26 -8
47 -19 22 -10 60 -24 85 -32 25 -7 46 -17 46 -21 0 -4 9 -8 20 -8 20 0 29 -4
77 -28 13 -7 32 -12 43 -12 11 0 20 -4 20 -8 0 -4 21 -14 47 -21 27 -8 53 -17
58 -21 6 -4 39 -17 75 -29 61 -21 75 -26 133 -50 12 -6 54 -20 92 -33 39 -13
72 -26 73 -30 2 -5 12 -8 23 -8 11 0 27 -4 37 -10 9 -5 73 -28 142 -51 69 -22
129 -45 134 -50 6 -5 20 -9 32 -9 13 0 25 -4 28 -8 3 -4 28 -14 55 -22 28 -7
51 -16 51 -20 0 -3 21 -12 48 -19 26 -8 54 -18 62 -22 39 -18 72 -31 165 -61
55 -18 102 -36 103 -40 2 -5 12 -8 23 -8 11 0 27 -4 37 -10 9 -5 60 -23 112
-40 52 -17 109 -38 125 -45 17 -7 53 -21 80 -30 28 -9 61 -21 75 -27 44 -19
63 -26 130 -49 36 -12 69 -25 74 -30 6 -5 19 -9 31 -9 12 0 25 -4 31 -8 5 -4
27 -14 49 -21 42 -13 78 -27 107 -42 10 -5 26 -9 36 -9 10 0 22 -4 28 -8 5 -5
43 -19 84 -32 41 -13 79 -27 84 -32 6 -4 20 -8 32 -8 12 0 24 -3 26 -8 2 -4
50 -23 108 -42 58 -18 110 -37 115 -41 6 -4 62 -25 125 -47 177 -62 244 -86
300 -110 14 -6 54 -21 90 -33 36 -12 69 -25 74 -30 6 -5 18 -9 28 -9 10 0 27
-4 38 -10 11 -5 29 -14 40 -20 11 -6 27 -10 35 -10 9 0 35 -9 57 -20 23 -11
48 -20 55 -20 13 0 24 -5 70 -28 13 -7 32 -12 43 -12 11 0 20 -3 20 -8 0 -4
36 -18 80 -32 44 -14 80 -28 80 -32 0 -5 10 -8 23 -8 13 0 27 -4 33 -8 5 -4
27 -14 49 -21 22 -7 59 -21 82 -32 24 -10 48 -19 53 -19 6 0 28 -8 49 -19 22
-10 60 -24 85 -32 25 -7 46 -17 46 -21 0 -4 9 -8 20 -8 11 0 28 -4 38 -10 9
-5 46 -19 82 -31 36 -12 69 -25 74 -30 6 -5 19 -9 31 -9 12 0 25 -4 31 -8 5
-4 27 -14 49 -21 22 -7 59 -21 82 -32 24 -10 51 -19 61 -19 10 0 22 -3 25 -7
4 -4 38 -17 75 -30 69 -23 117 -29 126 -15 3 4 28 14 55 22 28 7 51 17 51 22
0 4 7 8 15 8 15 0 55 19 65 31 3 3 17 9 32 12 15 4 33 14 42 22 8 8 18 15 23
15 15 0 63 25 63 33 0 4 9 7 20 7 11 0 20 3 20 8 0 4 21 18 48 32 26 13 49 27
52 30 4 4 28 18 115 64 11 6 22 13 25 16 3 3 34 21 70 39 91 48 104 55 110 61
5 5 58 35 130 72 25 13 47 25 50 28 3 3 52 30 110 59 58 30 107 58 108 63 2 4
12 8 22 8 10 0 20 3 22 8 3 6 37 25 208 114 25 12 47 26 48 31 2 4 12 7 22 7
10 0 20 4 22 8 2 5 41 28 88 52 47 24 87 47 90 50 3 3 32 19 65 36 100 52 150
79 155 84 5 5 58 35 130 72 25 13 47 25 50 28 5 5 58 35 130 72 25 13 47 26
48 31 2 4 12 7 23 7 10 0 19 5 19 10 0 6 9 10 19 10 11 0 21 3 23 8 3 6 99 60
155 87 13 5 23 13 23 18 0 4 9 7 19 7 11 0 21 3 23 8 3 6 44 29 173 96 22 12
41 24 43 29 2 4 12 7 23 7 10 0 19 3 19 8 0 4 32 23 70 42 39 19 70 38 70 42
0 5 9 8 19 8 11 0 21 3 23 8 3 6 44 29 173 96 22 12 42 23 45 26 3 3 34 21 70
39 36 19 66 38 68 43 2 4 12 8 22 8 10 0 20 4 22 8 2 5 41 29 88 53 47 24 87
47 90 50 3 4 34 21 70 39 36 18 67 35 70 39 5 6 32 21 195 105 55 28 102 54
103 58 2 5 12 8 23 8 10 0 19 3 19 8 0 4 10 12 23 18 59 28 152 80 155 87 2 4
12 7 22 7 10 0 20 3 22 8 3 6 37 25 208 114 25 12 47 26 48 31 2 4 11 7 21 7
9 0 21 4 26 9 13 13 135 81 158 88 9 3 17 9 17 14 0 5 9 9 19 9 11 0 21 3 23
8 3 7 54 36 133 75 22 11 42 23 43 28 2 5 12 9 23 9 10 0 19 4 19 9 0 5 8 11
18 14 17 6 72 37 82 47 3 3 18 12 33 20 25 12 29 12 37 0 6 -9 10 -168 10
-360 l0 -345 -32 -13 c-94 -38 -143 -62 -160 -76 -10 -9 -22 -16 -26 -16 -15
0 -62 -25 -62 -32 0 -5 -9 -8 -19 -8 -11 0 -21 -3 -23 -8 -1 -4 -37 -27 -78
-52 -41 -24 -77 -47 -80 -50 -3 -3 -15 -11 -27 -17 -13 -7 -33 -19 -45 -25
-13 -7 -25 -15 -28 -18 -3 -3 -26 -17 -52 -30 -27 -14 -48 -28 -48 -32 0 -5
-9 -8 -20 -8 -11 0 -20 -4 -20 -9 0 -5 -22 -20 -50 -32 -27 -12 -50 -26 -50
-31 0 -4 -9 -8 -20 -8 -11 0 -20 -4 -20 -9 0 -5 -17 -16 -37 -25 -21 -9 -51
-24 -68 -34 -16 -9 -58 -34 -93 -55 -35 -20 -67 -37 -73 -37 -5 0 -9 -4 -9 -8
0 -5 -19 -17 -41 -28 -23 -10 -47 -23 -53 -29 -17 -15 -66 -43 -108 -63 -21
-9 -38 -20 -38 -24 0 -5 -9 -8 -20 -8 -11 0 -20 -4 -20 -8 0 -5 -22 -19 -50
-32 -27 -13 -50 -27 -50 -32 0 -4 -9 -8 -20 -8 -11 0 -20 -3 -20 -7 0 -5 -23
-19 -50 -32 -28 -14 -50 -29 -50 -33 0 -4 -9 -8 -20 -8 -11 0 -20 -4 -20 -8 0
-5 -22 -19 -50 -32 -27 -13 -50 -27 -50 -32 0 -4 -9 -8 -20 -8 -11 0 -20 -4
-20 -8 0 -5 -22 -19 -50 -32 -27 -13 -50 -27 -50 -32 0 -4 -9 -8 -20 -8 -11 0
-20 -4 -20 -8 0 -5 -22 -19 -50 -32 -27 -13 -50 -27 -50 -32 0 -4 -9 -8 -19
-8 -11 0 -21 -4 -23 -8 -2 -5 -32 -24 -68 -42 -36 -19 -77 -42 -92 -52 -14
-10 -33 -18 -42 -18 -9 0 -16 -4 -16 -8 0 -5 -22 -19 -50 -32 -27 -13 -50 -27
-50 -32 0 -4 -9 -8 -20 -8 -11 0 -20 -4 -20 -8 0 -5 -22 -19 -50 -32 -27 -13
-50 -27 -50 -32 0 -4 -9 -8 -20 -8 -11 0 -20 -4 -20 -8 0 -5 -22 -19 -50 -32
-27 -13 -50 -27 -50 -32 0 -4 -9 -8 -19 -8 -11 0 -21 -4 -23 -9 -1 -5 -23 -19
-48 -31 -25 -12 -63 -31 -85 -42 -22 -12 -41 -24 -43 -29 -2 -5 -12 -9 -23 -9
-10 0 -19 -4 -19 -8 0 -5 -22 -19 -50 -31 -27 -12 -50 -27 -50 -32 0 -5 -9 -9
-20 -9 -11 0 -20 -3 -20 -7 0 -5 -10 -13 -23 -18 -32 -15 -111 -59 -117 -65
-3 -3 -26 -16 -52 -29 -27 -13 -48 -28 -48 -33 0 -4 -9 -8 -20 -8 -11 0 -20
-3 -20 -8 0 -4 -17 -15 -37 -24 -43 -20 -92 -48 -109 -63 -6 -6 -30 -19 -53
-29 -22 -11 -41 -23 -41 -28 0 -4 -9 -8 -20 -8 -11 0 -20 -3 -20 -7 0 -5 -10
-13 -23 -18 -32 -16 -111 -59 -117 -65 -3 -3 -26 -17 -52 -30 -27 -14 -48 -28
-48 -32 0 -5 -9 -8 -20 -8 -11 0 -20 -4 -20 -8 0 -5 -22 -19 -50 -32 -27 -13
-50 -27 -50 -32 0 -4 -9 -8 -20 -8 -11 0 -20 -4 -20 -8 0 -5 -22 -19 -50 -32
-27 -13 -50 -27 -50 -32 0 -4 -9 -8 -19 -8 -11 0 -21 -3 -23 -7 -1 -5 -23 -19
-48 -32 -25 -13 -63 -33 -85 -45 -22 -11 -42 -23 -45 -26 -6 -6 -43 -27 -90
-52 -19 -10 -48 -27 -65 -37 -16 -10 -47 -28 -67 -40 -21 -11 -54 -30 -73 -41
-19 -11 -52 -29 -72 -41 -21 -11 -42 -25 -47 -30 -6 -5 -18 -9 -27 -9 -10 0
-19 -4 -21 -8 -1 -4 -67 -40 -146 -80 -98 -49 -154 -72 -179 -72 -30 0 -166
40 -238 69 -11 5 -81 28 -155 51 -74 23 -144 46 -155 51 -11 4 -76 27 -145 49
-69 23 -129 46 -134 51 -6 5 -23 9 -38 9 -15 0 -28 5 -28 10 0 6 -9 10 -20 10
-11 0 -28 4 -38 10 -9 5 -46 19 -82 30 -36 12 -74 25 -85 29 -11 5 -38 14 -60
20 -22 7 -49 16 -60 20 -11 5 -33 14 -48 20 -15 6 -37 11 -47 11 -11 0 -20 4
-20 9 0 5 -12 11 -27 14 -58 12 -88 20 -93 26 -8 10 -75 31 -98 31 -12 0 -22
5 -22 10 0 6 -9 10 -20 10 -17 0 -33 5 -95 31 -11 4 -65 23 -120 41 -55 18
-101 36 -103 40 -2 5 -11 8 -20 8 -20 0 -89 23 -98 33 -4 4 -17 7 -29 7 -11 0
-25 4 -31 8 -5 5 -124 46 -264 91 -140 46 -263 87 -272 92 -10 5 -25 9 -33 9
-8 0 -23 4 -33 10 -9 5 -73 28 -142 50 -69 22 -133 45 -142 50 -10 6 -27 10
-37 10 -11 0 -22 4 -25 8 -3 5 -92 37 -198 71 -106 35 -201 67 -210 72 -10 5
-27 9 -38 9 -11 0 -28 4 -38 9 -36 18 -90 31 -130 31 -35 0 -42 -3 -42 -20 0
-11 -4 -20 -10 -20 -6 0 -10 -42 -10 -106 0 -97 2 -106 20 -111 11 -3 20 -9
20 -14 0 -5 7 -9 15 -9 8 0 23 -4 33 -9 39 -20 75 -33 252 -91 102 -33 193
-65 202 -70 10 -6 26 -10 36 -10 10 0 22 -3 25 -7 8 -7 73 -31 217 -79 58 -19
113 -39 122 -44 10 -6 26 -10 36 -10 10 0 22 -4 28 -8 5 -5 29 -14 54 -21 25
-7 54 -17 65 -22 26 -11 172 -59 210 -69 24 -7 188 -64 265 -93 8 -3 44 -15
80 -27 36 -11 73 -25 82 -30 10 -6 26 -10 36 -10 10 0 22 -4 28 -9 5 -5 52
-23 104 -40 52 -18 103 -36 112 -41 10 -6 25 -10 33 -10 8 0 24 -4 35 -10 11
-5 29 -15 40 -20 11 -6 29 -10 39 -10 11 0 23 -4 26 -10 3 -5 17 -10 31 -10
13 0 32 -4 42 -9 40 -20 76 -33 257 -92 105 -34 199 -65 210 -70 11 -4 63 -22
115 -39 52 -17 113 -39 135 -49 22 -10 60 -24 85 -31 25 -8 47 -17 50 -20 3
-3 28 -13 55 -22 88 -29 150 -50 167 -59 10 -5 26 -9 37 -9 11 0 21 -3 23 -8
4 -10 130 -52 156 -52 12 0 23 -4 26 -9 19 -30 252 -31 276 -2 3 3 35 22 73
41 37 19 67 38 67 42 0 5 9 8 20 8 11 0 20 5 20 10 0 6 9 10 20 10 11 0 20 4
20 8 0 5 12 15 28 23 15 8 29 16 32 19 4 4 29 18 115 64 11 6 22 14 25 17 3 4
34 21 70 39 36 18 67 35 70 39 3 4 34 22 70 40 36 19 67 37 70 40 3 3 19 13
35 21 17 8 59 31 94 52 34 21 69 38 77 38 8 0 14 3 14 8 0 4 30 23 68 42 37
19 69 37 72 40 3 3 26 17 53 30 26 14 47 28 47 32 0 5 9 8 19 8 11 0 21 4 23
8 2 5 32 24 68 43 36 18 67 36 70 39 3 3 26 16 53 29 26 13 47 28 47 33 0 4 8
8 18 8 10 0 22 4 28 9 9 9 38 25 129 74 22 12 42 24 45 27 3 3 26 17 53 30 26
14 47 28 47 32 0 5 9 8 20 8 11 0 20 5 20 10 0 6 4 10 10 10 5 0 33 14 62 31
59 35 104 61 163 92 22 12 42 24 45 27 3 3 25 16 50 29 25 14 47 27 50 30 3 3
34 21 70 40 36 19 67 37 70 40 3 4 26 18 53 31 26 14 47 28 47 32 0 5 9 8 20
8 11 0 20 3 20 8 0 4 15 13 33 21 17 8 64 33 102 56 39 23 86 50 105 60 19 10
37 21 40 24 5 6 68 41 117 65 13 6 23 14 23 19 0 4 9 7 20 7 11 0 20 5 20 10
0 6 9 10 19 10 11 0 21 4 23 8 2 5 32 24 68 43 36 18 67 36 70 39 5 5 73 42
117 64 13 6 23 14 23 19 0 4 9 7 20 7 11 0 20 5 20 10 0 6 9 10 20 10 11 0 20
4 20 8 0 4 22 19 50 33 27 13 50 27 50 32 0 4 9 7 19 7 11 0 21 3 23 8 2 4 33
23 71 42 37 19 67 38 67 42 0 5 9 8 20 8 11 0 20 3 20 8 0 4 10 12 23 17 31
15 111 59 117 65 6 6 86 50 117 65 13 5 23 13 23 18 0 4 4 7 10 7 5 0 33 14
62 31 69 41 120 70 188 105 30 16 57 31 60 34 4 4 29 18 115 64 11 6 22 13 25
16 3 3 25 15 50 28 72 37 125 67 130 72 4 4 29 18 115 64 11 6 22 13 25 16 3
3 24 15 48 28 23 12 61 32 85 45 23 12 43 25 45 30 2 4 12 7 23 7 10 0 19 4
19 9 0 5 8 11 18 14 9 4 36 18 60 32 24 14 47 23 53 20 5 -4 9 -157 9 -376 0
-308 -2 -373 -14 -385 -8 -8 -19 -14 -23 -14 -5 0 -28 -9 -51 -20 -22 -11 -48
-20 -57 -20 -8 0 -15 -4 -15 -10 0 -5 -9 -10 -19 -10 -11 0 -21 -3 -23 -7 -2
-5 -41 -28 -88 -52 -47 -24 -86 -48 -88 -53 -2 -4 -10 -8 -18 -8 -8 0 -24 -9
-36 -20 -12 -11 -28 -20 -35 -20 -7 0 -13 -4 -13 -8 0 -4 -22 -19 -50 -33 -27
-13 -50 -27 -50 -30 0 -4 -13 -12 -30 -19 -16 -7 -30 -16 -30 -21 0 -5 -7 -9
-15 -9 -9 0 -25 -9 -37 -20 -12 -11 -28 -20 -35 -20 -7 0 -13 -4 -13 -8 0 -5
-22 -19 -50 -32 -27 -13 -50 -27 -50 -31 0 -3 -8 -9 -17 -12 -10 -4 -38 -18
-63 -33 -68 -41 -111 -65 -155 -88 -22 -12 -46 -26 -53 -33 -6 -6 -21 -15 -32
-18 -11 -3 -20 -11 -20 -16 0 -5 -9 -9 -19 -9 -11 0 -21 -3 -23 -7 -1 -5 -23
-19 -48 -32 -25 -14 -47 -27 -50 -30 -3 -3 -15 -12 -27 -18 -13 -7 -33 -19
-45 -25 -13 -7 -25 -16 -28 -19 -3 -4 -25 -17 -50 -29 -25 -12 -47 -25 -50
-29 -5 -6 -23 -17 -75 -45 -11 -6 -22 -13 -25 -16 -3 -3 -26 -17 -52 -30 -27
-14 -48 -28 -48 -32 0 -5 -9 -8 -20 -8 -11 0 -20 -4 -20 -8 0 -4 -22 -19 -50
-33 -27 -13 -50 -27 -50 -31 0 -5 -6 -8 -13 -8 -7 0 -23 -9 -35 -20 -12 -11
-28 -20 -37 -20 -8 0 -15 -4 -15 -8 0 -4 -22 -19 -50 -33 -27 -13 -50 -27 -50
-31 0 -5 -6 -8 -13 -8 -7 0 -23 -9 -35 -20 -12 -11 -26 -20 -31 -20 -9 0 -109
-58 -121 -70 -6 -6 -86 -50 -117 -65 -13 -5 -23 -13 -23 -17 0 -5 -9 -8 -19
-8 -11 0 -21 -3 -23 -8 -2 -4 -37 -27 -78 -52 -41 -25 -76 -48 -78 -52 -2 -5
-12 -8 -23 -8 -10 0 -19 -4 -19 -8 0 -5 -22 -19 -50 -32 -27 -13 -50 -26 -50
-29 0 -3 -10 -11 -23 -17 -42 -21 -112 -59 -117 -64 -3 -3 -16 -11 -29 -18
-92 -52 -148 -85 -201 -116 -25 -14 -60 -34 -77 -43 -18 -9 -33 -20 -33 -25 0
-4 -9 -8 -20 -8 -11 0 -20 -4 -20 -8 0 -4 -22 -19 -50 -33 -27 -13 -50 -27
-50 -31 0 -5 -9 -8 -19 -8 -11 0 -21 -4 -23 -8 -3 -8 -80 -55 -130 -81 -16 -7
-28 -17 -28 -22 0 -5 -9 -9 -20 -9 -11 0 -20 -3 -20 -7 0 -5 -23 -19 -50 -32
-28 -14 -50 -29 -50 -33 0 -4 -9 -8 -20 -8 -11 0 -20 -4 -20 -8 0 -5 -21 -20
-47 -33 -27 -13 -54 -30 -61 -36 -7 -7 -17 -13 -22 -13 -5 0 -15 -6 -22 -12
-13 -13 -81 -52 -125 -73 -13 -5 -23 -13 -23 -17 0 -5 -9 -8 -20 -8 -11 0 -20
-4 -20 -9 0 -5 -12 -15 -27 -22 -51 -26 -128 -73 -131 -81 -2 -4 -12 -8 -23
-8 -10 0 -19 -4 -19 -8 0 -5 -22 -19 -50 -32 -27 -13 -50 -27 -50 -32 0 -4 -9
-8 -20 -8 -11 0 -20 -4 -20 -8 0 -5 -21 -20 -47 -33 -27 -13 -50 -26 -53 -29
-3 -3 -16 -11 -29 -18 -44 -25 -91 -52 -128 -74 -21 -11 -56 -31 -78 -42 -22
-12 -42 -23 -45 -26 -10 -10 -65 -41 -82 -47 -10 -3 -18 -9 -18 -12 0 -4 -22
-18 -50 -31 -27 -13 -50 -27 -50 -32 0 -4 -9 -8 -19 -8 -11 0 -21 -3 -23 -8
-1 -4 -37 -27 -78 -52 -41 -24 -77 -47 -80 -50 -3 -3 -15 -11 -27 -17 -57 -32
-68 -39 -81 -51 -7 -6 -17 -12 -22 -12 -5 0 -15 -6 -22 -13 -7 -7 -34 -23 -60
-37 -27 -14 -48 -28 -48 -32 0 -5 -9 -8 -20 -8 -11 0 -20 -3 -20 -8 0 -4 -15
-13 -32 -20 -18 -7 -41 -18 -50 -23 -22 -11 -43 -12 -66 0 -9 5 -37 15 -62 22
-25 7 -49 16 -55 21 -5 4 -19 8 -31 8 -12 0 -24 3 -26 8 -1 4 -30 17 -63 28
-132 48 -180 67 -190 75 -5 5 -15 9 -22 9 -8 0 -33 9 -55 20 -23 11 -46 20
-50 20 -5 0 -28 9 -50 20 -23 11 -48 20 -55 20 -7 0 -28 9 -48 20 -20 11 -42
20 -50 20 -9 0 -24 5 -35 10 -11 6 -29 15 -40 20 -11 6 -29 10 -40 10 -11 0
-20 4 -20 8 0 4 -21 14 -47 21 -46 14 -59 19 -103 41 -11 5 -29 10 -39 10 -11
0 -22 4 -25 8 -3 4 -28 14 -55 22 -28 7 -51 17 -51 22 0 4 -11 8 -24 8 -14 0
-27 4 -30 8 -3 4 -28 14 -55 22 -28 7 -51 17 -51 22 0 4 -11 8 -24 8 -14 0
-27 4 -30 8 -3 4 -28 14 -55 22 -28 7 -51 16 -51 20 0 4 -22 13 -50 20 -27 7
-50 16 -50 20 0 3 -21 12 -47 19 -27 8 -55 18 -63 22 -24 11 -62 26 -100 39
-35 12 -61 22 -102 39 -13 6 -66 24 -118 41 -52 17 -105 35 -117 41 -13 5 -33
13 -45 18 -13 6 -54 20 -93 33 -38 12 -72 25 -75 28 -3 3 -25 12 -50 20 -25 7
-63 21 -85 31 -22 10 -58 23 -80 30 -22 7 -44 17 -50 21 -5 4 -19 8 -32 8 -13
0 -23 4 -23 8 0 5 -22 15 -50 22 -27 7 -50 17 -50 22 0 4 -10 8 -23 8 -13 0
-27 4 -32 8 -6 5 -44 19 -85 32 -41 14 -77 27 -80 30 -3 3 -25 12 -50 19 -45
13 -62 19 -113 40 -64 26 -63 28 -70 -161 -4 -95 -7 -221 -7 -279 0 -97 2
-107 23 -126 27 -25 87 -55 147 -73 25 -7 49 -17 55 -22 5 -4 16 -8 25 -8 9 0
34 -8 56 -19 21 -10 60 -24 87 -32 26 -7 47 -17 47 -21 0 -4 10 -8 23 -8 13 0
27 -4 32 -8 6 -5 30 -15 55 -22 25 -8 63 -21 85 -31 22 -9 56 -22 75 -29 35
-12 59 -21 103 -39 12 -5 40 -16 62 -23 22 -7 42 -15 45 -18 3 -3 25 -12 50
-20 25 -7 63 -21 85 -31 22 -9 56 -22 75 -29 19 -7 46 -17 60 -22 14 -6 35
-15 48 -19 12 -5 32 -13 45 -18 12 -4 33 -13 47 -19 14 -6 54 -21 90 -33 36
-12 69 -25 75 -30 5 -5 22 -9 37 -9 15 0 28 -3 28 -8 0 -4 36 -18 80 -32 44
-14 80 -28 80 -32 0 -5 14 -8 30 -8 17 0 30 -4 30 -10 0 -5 11 -10 24 -10 14
0 28 -4 31 -10 3 -5 13 -10 21 -10 8 0 32 -8 53 -19 22 -10 60 -24 85 -32 25
-7 46 -17 46 -21 0 -4 7 -8 15 -8 8 0 34 -8 58 -19 23 -10 58 -24 77 -31 19
-7 54 -21 77 -31 24 -11 50 -19 58 -19 8 0 15 -4 15 -8 0 -5 23 -15 50 -22 28
-7 50 -17 50 -22 0 -4 10 -8 23 -8 13 0 27 -4 32 -8 6 -4 28 -14 50 -21 22 -7
51 -17 65 -23 44 -19 64 -26 105 -40 22 -7 42 -15 45 -18 3 -3 46 -19 95 -37
143 -49 209 -75 220 -84 5 -5 17 -9 27 -9 10 0 27 -4 38 -10 11 -5 29 -14 40
-20 11 -5 26 -10 33 -10 7 0 32 -9 55 -20 59 -29 109 -26 184 12 34 18 65 36
66 40 2 4 12 8 23 8 10 0 19 4 19 8 0 5 23 19 50 32 28 13 50 27 50 32 0 4 7
8 15 8 9 0 25 9 37 20 12 11 28 20 35 20 7 0 13 5 13 10 0 6 9 10 20 10 11 0
20 4 20 9 0 5 14 14 30 21 17 7 30 16 30 20 0 4 8 10 18 13 17 6 73 37 82 47
3 3 26 17 53 30 26 14 47 28 47 32 0 5 6 8 13 8 7 0 23 9 35 20 12 11 28 20
37 20 8 0 15 3 15 8 0 4 21 18 48 32 26 13 49 27 52 30 5 5 26 17 75 44 11 6
22 13 25 16 3 3 26 17 53 30 26 14 47 28 47 32 0 5 9 8 20 8 11 0 20 4 20 8 0
4 22 19 50 33 27 13 50 27 50 32 0 4 6 7 13 7 7 0 23 9 35 20 12 11 28 20 37
20 8 0 15 4 15 9 0 5 8 11 18 14 17 6 72 37 82 47 5 5 27 18 75 44 11 6 22 13
25 16 3 3 23 14 45 26 56 29 89 48 95 55 3 3 25 16 50 30 25 13 47 26 50 29 3
3 15 11 28 18 12 6 32 18 45 25 12 6 24 14 27 17 3 3 26 17 53 30 26 14 47 28
47 32 0 5 9 8 20 8 11 0 20 4 20 9 0 5 9 13 20 16 11 3 26 12 32 18 11 11 32
22 123 71 11 6 22 13 25 16 5 5 58 35 130 72 25 13 47 25 50 28 3 3 25 16 50
29 25 14 47 27 50 30 3 4 26 18 53 31 26 14 47 28 47 32 0 5 9 8 20 8 11 0 20
3 20 8 0 4 21 18 48 32 26 13 49 27 52 30 3 3 26 17 53 30 26 14 47 28 47 32
0 5 9 8 20 8 11 0 20 5 20 10 0 6 6 10 13 10 7 0 23 9 35 20 12 11 28 20 37
20 8 0 15 4 15 9 0 5 8 11 18 14 17 6 72 37 82 47 5 5 27 18 75 44 11 6 22 13
25 16 10 10 65 41 83 47 9 3 17 9 17 14 0 5 6 9 13 9 7 0 23 9 35 20 12 11 28
20 37 20 8 0 15 4 15 9 0 5 8 11 18 14 17 6 72 37 82 47 3 3 15 11 28 18 12 6
32 18 45 25 12 6 24 14 27 17 3 3 26 17 53 30 26 14 47 28 47 32 0 5 9 8 20 8
11 0 20 4 20 8 0 4 22 19 50 33 27 13 50 27 50 32 0 4 9 7 20 7 11 0 20 4 20
9 0 5 14 14 30 21 17 7 30 15 30 19 0 3 23 17 50 30 28 14 50 29 50 33 0 4 9
8 20 8 11 0 20 4 20 9 0 5 8 11 18 14 17 6 73 37 82 47 3 3 26 17 53 30 26 14
47 28 47 32 0 5 9 8 20 8 11 0 20 5 20 10 0 6 6 10 13 10 7 0 23 9 35 20 12
11 28 20 37 20 8 0 15 3 15 8 0 4 21 18 48 32 26 13 49 27 52 30 9 10 65 41
83 47 9 3 17 9 17 14 0 5 9 9 20 9 11 0 20 4 20 9 0 5 8 11 18 14 17 6 73 37
82 47 3 3 26 17 53 30 26 14 47 28 47 32 0 5 9 8 20 8 11 0 20 3 20 8 0 4 21
18 48 32 26 13 49 27 52 30 3 3 25 16 50 29 25 14 47 27 50 30 3 3 25 17 50
30 25 14 47 27 50 30 3 3 15 12 28 19 12 6 32 18 45 25 12 6 24 14 27 17 3 3
26 17 53 30 26 14 47 28 47 32 0 5 9 8 20 8 11 0 20 3 20 8 0 4 21 18 48 32
26 13 49 27 52 30 3 3 15 11 28 18 12 6 32 18 45 25 12 6 24 14 27 17 4 4 29
18 115 64 11 6 22 14 25 17 3 3 25 16 50 30 25 13 46 27 48 32 2 4 12 7 23 7
10 0 19 4 19 9 0 5 14 14 30 21 17 7 30 16 30 20 0 4 8 10 18 13 29 10 75 40
110 74 l32 31 -1 1229 c-2 1303 -6 1451 -44 1495 -22 25 -98 68 -121 68 -8 0
-14 5 -14 10 0 6 -6 10 -13 10 -7 0 -32 9 -55 20 -22 11 -48 20 -56 20 -8 0
-17 4 -20 8 -3 5 -38 19 -78 32 -40 13 -75 27 -78 30 -3 3 -38 17 -78 30 -40
13 -75 27 -78 32 -3 4 -12 8 -20 8 -8 0 -33 9 -57 19 -23 11 -73 30 -112 43
-38 13 -71 26 -73 30 -2 5 -14 8 -26 8 -12 0 -26 4 -31 8 -6 5 -44 19 -85 32
-41 14 -77 27 -80 30 -3 3 -39 16 -80 30 -41 13 -79 27 -85 32 -5 4 -17 8 -27
8 -10 0 -26 4 -36 9 -31 16 -66 29 -132 51 -36 12 -83 29 -105 39 -22 10 -60
23 -85 31 -25 7 -49 17 -55 22 -5 4 -19 8 -31 8 -12 0 -24 3 -26 8 -2 4 -50
23 -108 42 -58 18 -109 37 -115 41 -5 4 -53 21 -105 38 -94 32 -128 45 -162
62 -10 5 -25 9 -33 9 -8 0 -23 4 -33 10 -9 5 -46 19 -82 30 -61 20 -78 26
-132 50 -13 5 -81 28 -153 52 -71 24 -131 46 -133 50 -2 5 -14 8 -27 8 -13 0
-27 5 -30 10 -3 6 -13 10 -21 10 -8 0 -33 8 -57 19 -23 10 -58 24 -77 31 -19
7 -46 17 -60 22 -36 15 -60 24 -100 38 -19 7 -46 17 -60 22 -14 6 -36 15 -50
21 -14 5 -33 13 -42 18 -10 5 -27 9 -37 9 -11 0 -23 5 -26 10 -3 6 -17 10 -31
10 -13 0 -24 5 -24 10 0 6 -13 10 -30 10 -16 0 -30 5 -30 10 0 6 -9 10 -20 10
-11 0 -28 4 -38 10 -9 5 -60 23 -112 40 -93 30 -109 36 -160 58 -14 6 -54 20
-90 32 -36 12 -75 26 -87 31 -45 18 -69 27 -103 39 -42 15 -79 29 -102 41 -10
5 -25 9 -33 9 -8 0 -23 4 -33 10 -9 5 -60 23 -112 40 -93 30 -127 43 -162 61
-10 5 -26 9 -36 9 -10 0 -22 4 -27 8 -6 5 -44 19 -85 32 -41 14 -77 27 -80 31
-3 3 -26 12 -52 20 -27 7 -48 17 -48 21 0 4 -9 8 -20 8 -11 0 -28 4 -38 9 -9
5 -30 14 -47 21 -16 7 -38 16 -47 21 -10 5 -22 9 -28 9 -6 0 -29 9 -53 19 -23
11 -60 25 -82 33 -22 7 -42 15 -45 18 -3 3 -23 11 -45 18 -22 7 -50 18 -62 23
-13 5 -33 13 -45 18 -13 5 -52 19 -88 31 -36 11 -73 25 -82 30 -10 6 -27 10
-38 10 -11 0 -20 5 -20 10 0 6 -13 10 -29 10 -17 0 -32 4 -35 9 -3 5 -23 11
-43 15 -21 3 -54 8 -73 10 -19 3 -46 1 -60 -5z m-205 -1529 c20 -11 42 -20 50
-20 8 0 15 -4 15 -10 0 -5 14 -10 30 -10 17 0 30 -4 30 -10 0 -5 10 -10 22
-10 23 0 81 -16 110 -31 10 -5 26 -9 36 -9 9 0 42 -9 72 -20 30 -11 65 -20 77
-20 13 0 23 -3 23 -8 0 -9 72 -32 100 -32 11 0 20 -4 20 -10 0 -5 11 -10 24
-10 14 0 28 -4 31 -10 3 -5 19 -10 36 -10 16 0 29 -4 29 -8 0 -4 21 -13 48
-21 26 -7 56 -17 67 -21 11 -5 52 -19 90 -32 39 -13 72 -26 73 -30 2 -5 12 -8
23 -8 27 0 99 -23 99 -32 0 -5 14 -8 30 -8 17 0 30 -3 30 -8 0 -9 72 -32 100
-32 11 0 20 -4 20 -10 0 -5 11 -10 24 -10 14 0 28 -4 31 -10 3 -5 15 -10 26
-10 27 0 99 -23 99 -32 0 -5 9 -8 20 -8 28 0 100 -23 100 -32 0 -5 14 -8 30
-8 17 0 39 -4 50 -10 11 -5 29 -14 40 -20 11 -5 30 -10 43 -10 13 0 27 -3 31
-7 11 -11 79 -33 104 -33 12 0 22 -3 22 -8 0 -4 36 -18 80 -32 44 -14 80 -28
80 -32 0 -5 11 -8 25 -8 14 0 43 -9 65 -20 22 -11 47 -20 58 -20 10 0 22 -4
28 -8 5 -5 29 -14 54 -21 25 -7 55 -17 68 -22 12 -5 32 -13 45 -18 12 -5 42
-15 67 -22 25 -7 49 -16 54 -21 6 -4 22 -8 37 -8 15 0 31 -4 34 -10 3 -5 17
-10 30 -10 13 0 27 -4 30 -10 3 -5 19 -10 36 -10 16 0 29 -4 29 -10 0 -5 14
-10 30 -10 17 0 30 -4 30 -10 0 -5 11 -10 25 -10 14 0 33 -4 43 -9 31 -16 66
-29 107 -42 22 -6 48 -15 57 -20 10 -5 27 -9 37 -9 11 0 23 -4 26 -10 3 -5 19
-10 36 -10 16 0 29 -4 29 -9 0 -5 16 -12 35 -15 19 -3 51 -9 70 -12 19 -3 35
-9 35 -13 0 -19 -115 -91 -146 -91 -8 0 -14 -4 -14 -10 0 -5 -9 -10 -20 -10
-11 0 -20 -4 -20 -10 0 -5 -9 -10 -20 -10 -11 0 -20 -4 -20 -8 0 -5 -21 -20
-47 -33 -27 -13 -49 -27 -51 -31 -2 -5 -12 -8 -23 -8 -10 0 -19 -4 -19 -10 0
-5 -9 -10 -20 -10 -11 0 -20 -4 -20 -10 0 -5 -9 -10 -20 -10 -11 0 -20 -3 -20
-8 0 -4 -15 -13 -32 -21 -18 -8 -45 -22 -60 -33 -14 -10 -36 -18 -47 -18 -12
0 -21 -4 -21 -9 0 -10 -204 -111 -225 -111 -8 0 -15 -4 -15 -10 0 -5 -9 -10
-19 -10 -11 0 -21 -5 -23 -11 -3 -8 -31 -12 -78 -12 -47 0 -75 4 -78 12 -2 6
-14 11 -27 11 -13 0 -26 4 -29 8 -3 4 -28 14 -55 22 -28 7 -51 17 -51 22 0 4
-11 8 -24 8 -14 0 -27 4 -30 8 -3 4 -28 14 -55 22 -28 7 -51 17 -51 22 0 4
-10 8 -22 8 -25 0 -93 22 -104 33 -4 4 -18 7 -31 7 -13 0 -23 5 -23 10 0 6
-10 10 -23 10 -13 0 -27 4 -33 8 -5 5 -56 23 -114 41 -105 34 -121 39 -173 60
-15 6 -39 11 -52 11 -14 0 -25 5 -25 10 0 6 -13 10 -30 10 -16 0 -30 5 -30 10
0 6 -10 10 -21 10 -22 0 -140 35 -171 51 -10 5 -27 9 -37 9 -11 0 -23 5 -26
10 -3 6 -19 10 -36 10 -16 0 -29 5 -29 10 0 6 -13 10 -30 10 -16 0 -30 5 -30
10 0 6 -13 10 -30 10 -16 0 -30 5 -30 10 0 6 -11 10 -24 10 -14 0 -28 5 -31
10 -3 6 -16 10 -29 10 -12 0 -26 4 -32 8 -5 5 -83 32 -174 61 -165 53 -181 59
-233 80 -15 6 -39 11 -52 11 -14 0 -25 5 -25 10 0 6 -13 10 -30 10 -16 0 -30
5 -30 10 0 6 -10 10 -23 10 -12 0 -47 9 -77 20 -30 11 -65 20 -77 20 -13 0
-23 5 -23 10 0 6 -13 10 -29 10 -17 0 -33 5 -36 10 -3 6 -17 10 -31 10 -13 0
-24 5 -24 10 0 6 -13 10 -30 10 -16 0 -30 5 -30 10 0 6 -13 10 -30 10 -16 0
-30 4 -30 8 0 4 -21 14 -46 21 -25 8 -62 22 -83 31 -20 9 -57 23 -83 31 -27 7
-48 17 -48 21 0 4 -13 8 -30 8 -16 0 -30 4 -30 8 0 4 -21 14 -47 21 -27 8 -55
18 -63 22 -8 3 -46 16 -85 28 -109 34 -165 62 -165 83 0 11 7 18 20 18 11 0
20 5 20 10 0 6 10 10 23 10 28 0 140 53 170 80 11 11 27 20 34 20 7 0 13 5 13
10 0 6 9 10 19 10 11 0 21 4 23 9 3 7 101 59 308 161 36 17 74 37 85 43 11 6
38 20 60 31 22 12 42 23 45 26 3 3 17 11 33 19 15 8 27 18 27 23 0 15 59 8 95
-12z"/>
<path d="M47873 9652 c-169 -2 -192 -4 -199 -20 -14 -27 -17 -3658 -4 -3832
13 -186 29 -326 40 -370 5 -19 14 -62 20 -95 15 -80 30 -136 41 -157 5 -10 9
-27 9 -37 0 -20 7 -39 41 -118 11 -24 19 -46 19 -51 0 -5 9 -27 20 -50 11 -22
20 -48 20 -57 0 -8 5 -15 10 -15 6 0 10 -7 10 -15 0 -20 114 -248 151 -302 16
-23 29 -46 29 -51 0 -6 4 -12 8 -14 5 -1 28 -32 52 -68 24 -36 46 -67 50 -70
3 -3 21 -25 40 -50 92 -118 245 -271 352 -352 20 -15 42 -34 50 -41 7 -7 29
-24 48 -37 19 -13 37 -27 40 -30 3 -3 28 -20 55 -38 28 -17 55 -35 60 -39 10
-8 105 -59 175 -94 40 -21 150 -71 198 -90 17 -8 32 -17 32 -21 0 -5 11 -8 24
-8 14 0 28 -4 31 -10 3 -5 15 -10 26 -10 10 0 19 -4 19 -10 0 -5 13 -10 29
-10 17 0 33 -4 36 -10 3 -5 15 -10 26 -10 10 0 27 -4 37 -9 24 -13 145 -47
280 -80 40 -10 122 -24 242 -40 155 -21 739 -18 850 5 68 14 64 -36 62 727 -1
439 -5 693 -11 696 -6 4 -41 3 -78 -2 -185 -22 -386 -30 -501 -19 -177 17
-215 22 -237 32 -19 8 -47 15 -110 27 -16 3 -34 9 -40 12 -5 4 -30 14 -55 21
-44 14 -200 88 -210 100 -3 3 -21 17 -40 30 -42 28 -220 204 -220 217 0 5 -8
18 -17 29 -22 24 -63 101 -63 119 0 7 -4 15 -8 17 -8 3 -39 89 -54 153 -42
179 -56 411 -57 934 l-1 433 28 -8 c15 -4 329 -9 699 -11 l672 -4 13 23 c10
18 12 163 10 709 l-3 686 -492 7 c-755 10 -904 15 -914 35 -4 9 -9 309 -11
668 -3 483 -7 654 -15 661 -12 9 -951 20 -1314 14z"/>
<path d="M18820 9573 c-175 -4 -181 -7 -208 -88 -13 -39 -27 -75 -41 -105 -4
-8 -14 -36 -22 -62 -7 -27 -17 -48 -21 -48 -4 0 -8 -7 -8 -15 0 -9 -9 -35 -20
-57 -11 -23 -20 -45 -20 -50 0 -5 -9 -28 -20 -53 -11 -25 -29 -65 -40 -90 -11
-25 -20 -52 -20 -60 0 -8 -4 -15 -10 -15 -5 0 -10 -7 -10 -15 0 -8 -10 -36
-21 -62 -12 -27 -26 -59 -32 -73 -5 -14 -13 -33 -18 -42 -5 -10 -9 -23 -9 -28
0 -6 -9 -30 -20 -52 -11 -23 -20 -46 -20 -50 0 -5 -9 -28 -20 -50 -11 -23 -20
-48 -20 -55 0 -7 -3 -13 -8 -13 -4 0 -12 -15 -18 -32 -7 -18 -22 -58 -34 -88
-12 -30 -32 -82 -43 -115 -12 -33 -24 -62 -28 -65 -3 -3 -12 -26 -20 -52 -7
-27 -16 -48 -19 -48 -4 0 -13 -22 -20 -50 -7 -27 -16 -50 -20 -50 -3 0 -12
-21 -19 -47 -8 -27 -17 -52 -21 -58 -4 -5 -18 -39 -30 -75 -12 -36 -26 -69
-31 -74 -5 -6 -9 -16 -9 -23 0 -12 -13 -45 -61 -151 -10 -23 -19 -49 -19 -57
0 -8 -4 -15 -10 -15 -5 0 -10 -7 -10 -15 0 -9 -8 -33 -19 -54 -10 -22 -24 -60
-32 -85 -7 -25 -17 -46 -21 -46 -4 0 -8 -9 -8 -19 0 -11 -4 -23 -10 -26 -5 -3
-10 -17 -10 -31 0 -13 -4 -24 -10 -24 -5 0 -10 -7 -10 -15 0 -9 -9 -35 -20
-57 -11 -23 -20 -45 -20 -50 0 -5 -9 -27 -19 -51 -11 -23 -25 -60 -33 -82 -7
-22 -15 -42 -18 -45 -3 -3 -11 -23 -18 -45 -14 -43 -29 -79 -43 -107 -5 -10
-9 -23 -9 -28 0 -6 -9 -30 -20 -52 -11 -23 -20 -45 -20 -50 0 -5 -9 -28 -20
-53 -11 -25 -29 -65 -40 -90 -11 -25 -20 -52 -20 -60 0 -8 -4 -15 -8 -15 -5 0
-15 -22 -22 -50 -7 -27 -17 -50 -22 -50 -4 0 -8 -6 -8 -13 0 -7 -9 -32 -20
-55 -11 -22 -20 -46 -20 -52 0 -5 -4 -19 -10 -30 -5 -11 -14 -29 -20 -40 -5
-11 -10 -26 -10 -34 0 -8 -3 -16 -8 -18 -4 -1 -17 -34 -30 -73 -13 -38 -32
-89 -43 -112 -10 -24 -19 -47 -19 -53 0 -6 -4 -18 -9 -28 -5 -9 -13 -28 -19
-42 -5 -14 -19 -46 -31 -72 -12 -26 -21 -52 -21 -58 0 -6 -4 -18 -9 -28 -5 -9
-13 -28 -19 -42 -5 -14 -19 -46 -31 -72 -12 -26 -21 -51 -21 -56 0 -5 -9 -27
-20 -50 -11 -22 -20 -47 -20 -55 0 -7 -4 -17 -9 -22 -5 -6 -19 -39 -31 -75
-12 -36 -30 -84 -41 -107 -10 -24 -19 -47 -19 -53 0 -6 -4 -19 -10 -30 -22
-44 -27 -57 -41 -102 -7 -27 -16 -48 -19 -48 -4 0 -13 -23 -20 -50 -7 -28 -17
-50 -22 -50 -4 0 -8 -7 -8 -15 0 -8 -10 -37 -21 -63 -24 -52 -44 -99 -66 -152
-8 -19 -23 -54 -34 -78 -10 -23 -19 -47 -19 -53 0 -5 -9 -29 -20 -51 -11 -23
-20 -45 -20 -50 0 -5 -9 -28 -20 -53 -11 -25 -29 -65 -40 -90 -11 -25 -20 -52
-20 -60 0 -8 -4 -15 -8 -15 -4 0 -14 -21 -21 -47 -8 -27 -18 -55 -22 -63 -8
-18 -28 -66 -40 -97 -17 -45 -27 -69 -48 -115 -12 -26 -21 -55 -21 -63 0 -8
-4 -15 -10 -15 -5 0 -10 -6 -10 -13 0 -7 -9 -32 -20 -55 -11 -22 -20 -48 -20
-57 0 -8 -4 -15 -10 -15 -5 0 -10 -7 -10 -15 0 -8 -8 -29 -18 -47 -31 -54 -35
-96 -12 -108 13 -7 282 -11 818 -13 698 -2 800 0 813 13 8 8 25 49 38 90 13
41 27 84 32 95 4 11 26 76 49 145 23 69 45 134 50 145 4 11 14 41 21 68 8 26
17 47 21 47 4 0 8 11 8 24 0 14 5 28 10 31 6 3 10 16 10 29 0 12 4 26 8 31 4
6 14 28 21 50 7 22 16 49 21 60 4 11 14 40 21 65 7 25 16 49 21 55 4 5 8 19 8
32 0 13 5 23 10 23 6 0 10 7 10 15 0 8 9 35 20 60 11 25 29 65 40 90 11 25 20
52 20 60 0 8 3 15 8 15 4 0 504 2 1112 3 608 2 1116 6 1129 8 25 4 26 3 63
-73 4 -10 8 -27 8 -38 0 -11 5 -20 10 -20 6 0 10 -9 10 -19 0 -11 5 -23 10
-26 6 -3 10 -17 10 -31 0 -13 5 -24 10 -24 6 0 10 -9 10 -20 0 -11 4 -28 10
-38 5 -9 28 -73 50 -142 40 -121 52 -155 71 -192 5 -10 9 -27 9 -37 0 -11 5
-23 10 -26 6 -3 10 -16 10 -29 0 -12 4 -26 8 -31 4 -6 14 -28 21 -50 7 -22 17
-50 22 -62 5 -13 13 -33 18 -45 23 -61 43 -110 70 -170 12 -26 21 -52 21 -57
0 -12 42 -93 56 -108 22 -23 1386 -38 1569 -18 11 1 32 3 48 4 20 1 27 6 27
21 0 11 -4 20 -10 20 -5 0 -10 6 -10 13 0 7 -9 32 -20 55 -11 22 -20 46 -20
51 0 6 -9 30 -19 53 -44 98 -61 138 -61 146 0 5 -9 27 -20 50 -11 22 -20 45
-20 50 0 4 -9 27 -20 50 -11 22 -20 45 -20 50 0 4 -9 27 -20 50 -11 22 -20 46
-20 52 0 5 -4 19 -10 30 -5 11 -14 29 -20 40 -5 11 -10 25 -10 30 0 6 -9 30
-20 52 -11 23 -20 45 -20 50 0 5 -8 27 -19 51 -10 23 -28 67 -41 97 -13 30
-31 74 -41 97 -11 24 -19 46 -19 51 0 5 -9 27 -20 50 -11 22 -20 48 -20 57 0
8 -4 15 -10 15 -5 0 -10 7 -10 15 0 9 -9 35 -20 57 -11 23 -20 45 -20 50 0 5
-9 30 -21 56 -12 26 -25 57 -30 70 -5 12 -14 34 -20 50 -7 15 -15 36 -19 47
-4 11 -12 32 -19 48 -6 15 -16 39 -22 55 -7 15 -16 38 -22 52 -5 14 -14 36
-20 50 -5 14 -14 36 -20 50 -5 14 -14 36 -20 50 -5 14 -13 33 -18 42 -5 10 -9
22 -9 28 0 6 -9 30 -20 55 -11 25 -29 65 -40 90 -11 25 -20 52 -20 60 0 8 -4
15 -8 15 -5 0 -15 23 -22 50 -7 27 -16 50 -20 50 -4 0 -13 23 -20 50 -7 28
-17 50 -22 50 -4 0 -8 9 -8 20 0 20 -4 29 -28 77 -7 13 -12 32 -12 43 0 11 -4
20 -8 20 -5 0 -15 23 -22 50 -7 28 -16 50 -20 50 -3 0 -12 21 -19 46 -8 25
-22 63 -32 85 -11 21 -19 44 -19 52 0 7 -4 17 -9 22 -5 6 -18 36 -30 68 -11
31 -31 83 -42 115 -12 31 -25 61 -30 67 -5 5 -9 15 -9 22 0 8 -9 33 -20 55
-11 23 -20 45 -20 50 0 5 -8 27 -19 51 -10 23 -28 67 -41 97 -13 30 -31 74
-41 97 -11 24 -19 46 -19 51 0 5 -9 27 -20 50 -11 22 -20 45 -20 50 0 4 -9 27
-20 50 -11 22 -20 45 -20 50 0 4 -9 27 -20 50 -11 22 -20 45 -20 50 0 4 -8 26
-19 48 -10 21 -24 60 -32 87 -7 26 -17 47 -21 47 -4 0 -8 7 -8 15 0 14 -12 45
-61 153 -10 23 -19 49 -19 57 0 8 -4 15 -10 15 -5 0 -10 7 -10 15 0 8 -10 37
-21 63 -52 116 -59 132 -59 140 0 8 -33 82 -50 114 -6 10 -10 23 -10 28 0 6
-9 30 -20 52 -11 23 -20 45 -20 50 0 5 -8 27 -19 51 -10 23 -24 58 -31 77 -7
19 -21 54 -31 77 -11 24 -19 46 -19 51 0 5 -9 27 -20 50 -11 22 -20 45 -20 50
0 4 -9 27 -20 50 -11 22 -20 45 -20 50 0 4 -9 27 -20 50 -11 22 -20 45 -20 50
0 4 -9 27 -20 50 -11 22 -20 48 -20 57 0 8 -4 15 -8 15 -5 0 -15 23 -22 50 -7
28 -16 50 -20 50 -4 0 -13 23 -20 50 -7 28 -16 50 -20 50 -3 0 -12 21 -19 48
-8 26 -18 54 -22 62 -14 30 -28 66 -41 105 -7 22 -15 42 -18 45 -3 3 -11 23
-18 45 -8 22 -22 59 -33 82 -10 24 -19 49 -19 57 0 8 -4 17 -9 20 -4 3 -16 30
-25 61 l-18 55 -376 0 c-208 0 -480 2 -607 4 -126 2 -300 1 -385 -1z m600
-1808 c0 -15 4 -25 28 -72 7 -13 12 -32 12 -43 0 -11 4 -20 8 -20 5 0 15 -22
22 -50 7 -27 16 -50 20 -50 4 0 13 -23 20 -51 8 -27 18 -52 22 -55 4 -3 8 -16
8 -30 0 -13 5 -24 10 -24 6 0 10 -13 10 -30 0 -16 4 -30 8 -30 5 0 15 -22 22
-50 7 -27 17 -50 22 -50 4 0 8 -13 8 -30 0 -16 5 -30 10 -30 6 0 10 -11 10
-24 0 -14 5 -28 10 -31 6 -3 10 -15 10 -26 0 -10 5 -19 10 -19 6 0 10 -13 10
-29 0 -16 3 -31 8 -33 4 -1 17 -34 30 -73 13 -38 28 -81 34 -95 19 -45 26 -64
48 -130 11 -36 25 -73 30 -82 6 -10 10 -27 10 -37 0 -11 5 -23 10 -26 6 -3 10
-17 10 -31 0 -13 5 -24 10 -24 6 0 10 -13 10 -29 0 -17 5 -33 10 -36 6 -3 10
-17 10 -30 0 -13 5 -27 10 -30 6 -3 10 -17 10 -30 0 -13 5 -27 10 -30 6 -3 10
-17 10 -30 0 -13 5 -27 10 -30 6 -3 10 -19 10 -35 0 -16 5 -32 10 -35 6 -3 10
-19 10 -35 0 -16 5 -32 10 -35 6 -3 10 -17 10 -31 l0 -24 -609 0 c-396 0 -612
4 -616 10 -8 12 26 130 37 130 4 0 8 10 8 22 0 20 13 69 31 113 4 11 17 49 29
85 12 36 25 74 30 85 4 11 14 40 21 65 7 25 16 49 21 55 4 5 8 19 8 32 0 13 5
23 10 23 6 0 10 11 10 24 0 14 5 28 10 31 6 3 10 15 10 26 0 10 5 28 10 39 6
11 15 29 20 40 6 11 10 29 10 40 0 11 3 20 8 20 4 0 18 36 32 80 14 44 28 80
32 80 5 0 8 10 8 23 0 13 4 27 8 33 5 5 14 29 21 54 7 25 17 54 21 65 4 11 13
36 20 55 7 19 15 44 20 55 4 11 13 38 19 60 7 22 16 49 20 60 5 11 24 67 42
125 18 58 36 107 39 110 3 3 12 24 20 48 9 29 19 42 32 42 10 0 18 -7 18 -15z"/>
<path d="M35165 9571 l-160 -6 -3 -3083 c-2 -2670 0 -3085 12 -3098 13 -12
326 -14 2302 -14 1370 0 2292 4 2297 9 11 11 4 1357 -7 1382 -5 12 -26 18 -74
23 -37 3 -719 6 -1517 6 -797 0 -1455 4 -1462 8 -18 11 -33 1554 -31 3102 2
1172 -4 1631 -21 1657 -7 13 -1084 23 -1336 14z"/>
<path d="M31229 8485 c-3 -3 -46 -10 -95 -15 -146 -16 -318 -48 -429 -80 -22
-6 -56 -15 -75 -19 -19 -5 -55 -16 -80 -25 -25 -8 -52 -16 -61 -16 -8 0 -34
-9 -57 -20 -22 -11 -45 -20 -50 -20 -4 0 -27 -9 -50 -20 -22 -11 -48 -20 -57
-20 -8 0 -15 -4 -15 -10 0 -5 -6 -10 -14 -10 -17 0 -100 -42 -104 -52 -2 -5
-12 -8 -22 -8 -10 0 -20 -3 -22 -8 -1 -4 -37 -27 -78 -52 -41 -25 -81 -50 -88
-57 -6 -6 -21 -15 -32 -18 -11 -3 -20 -11 -20 -16 0 -5 -4 -9 -10 -9 -10 0
-86 -54 -130 -93 -14 -12 -50 -42 -80 -67 -70 -57 -220 -207 -257 -257 -15
-21 -38 -49 -50 -63 -13 -14 -23 -28 -23 -32 0 -3 -6 -13 -13 -20 -7 -7 -33
-42 -57 -78 -24 -36 -47 -66 -52 -68 -4 -2 -8 -12 -8 -23 0 -10 -4 -19 -9 -19
-5 0 -13 -9 -16 -20 -3 -11 -12 -26 -18 -33 -17 -18 -34 -48 -79 -142 -21 -44
-42 -87 -47 -95 -4 -8 -14 -36 -22 -62 -7 -27 -17 -48 -21 -48 -4 0 -8 -11 -8
-24 0 -14 -4 -28 -10 -31 -5 -3 -10 -17 -10 -30 0 -13 -4 -27 -10 -30 -5 -3
-10 -19 -10 -35 0 -16 -4 -31 -9 -34 -4 -3 -12 -22 -16 -43 -3 -21 -11 -58
-16 -83 -46 -213 -53 -300 -53 -640 0 -293 8 -421 34 -570 5 -30 13 -79 16
-107 4 -29 11 -53 15 -53 5 0 9 -10 9 -22 0 -12 4 -35 9 -52 37 -124 75 -238
92 -273 10 -24 19 -46 19 -50 0 -9 102 -215 110 -223 3 -3 11 -15 18 -27 31
-56 38 -68 55 -87 9 -11 17 -26 17 -33 0 -7 4 -13 8 -13 5 0 15 -12 23 -27 8
-16 22 -37 32 -47 9 -11 17 -24 17 -29 0 -5 8 -17 18 -26 10 -9 29 -32 42 -51
29 -42 270 -284 320 -321 19 -15 50 -40 69 -58 18 -17 46 -39 62 -48 16 -10
29 -21 29 -25 0 -4 5 -8 11 -8 6 0 23 -8 37 -19 42 -29 96 -59 247 -133 77
-38 148 -73 157 -78 10 -6 25 -10 33 -10 8 0 15 -4 15 -10 0 -5 7 -10 15 -10
8 0 30 -9 50 -20 20 -11 44 -20 55 -20 10 0 22 -4 25 -10 3 -5 15 -10 26 -10
10 0 27 -4 37 -9 9 -5 37 -15 62 -22 25 -7 49 -16 54 -21 6 -4 22 -8 37 -8 15
0 30 -4 33 -9 3 -5 23 -11 43 -14 21 -3 61 -11 88 -17 195 -43 311 -53 615
-53 267 0 447 10 560 33 125 25 147 29 190 40 25 6 62 14 83 17 20 3 40 9 43
14 3 5 16 9 29 9 13 0 27 4 30 10 3 5 15 10 26 10 10 0 28 5 39 10 11 6 29 15
40 20 11 6 29 10 40 10 11 0 20 5 20 10 0 6 6 10 13 10 13 0 67 23 140 60 22
11 45 20 52 20 7 0 15 3 17 8 2 4 30 21 63 38 131 66 191 100 209 116 11 10
26 18 33 18 7 0 13 4 13 8 0 4 14 16 30 26 17 9 41 27 53 39 12 13 38 33 57
47 19 13 42 31 50 40 8 8 32 28 53 43 50 38 183 171 227 227 19 25 42 52 50
60 9 8 27 31 40 50 14 19 34 45 47 57 12 12 24 32 28 43 3 11 10 20 14 20 5 0
14 14 21 30 7 17 15 30 19 30 4 0 18 22 32 50 13 27 27 50 32 50 4 0 7 9 7 20
0 11 5 20 10 20 6 0 10 9 10 20 0 11 5 20 10 20 6 0 10 6 10 13 0 7 9 32 20
55 11 22 20 48 20 56 0 8 4 16 8 18 8 3 99 267 113 328 4 19 13 53 18 75 24
88 45 187 61 285 4 30 14 89 21 130 17 94 17 447 1 550 -22 144 -31 195 -42
248 -5 28 -14 73 -19 100 -6 26 -15 66 -20 90 -6 23 -16 61 -22 85 -5 23 -13
54 -16 70 -3 15 -9 30 -14 33 -5 3 -9 18 -9 34 0 16 -4 32 -10 35 -5 3 -10 17
-10 31 0 13 -4 24 -8 24 -5 0 -15 23 -22 50 -7 28 -17 50 -22 50 -4 0 -8 6 -8
14 0 17 -42 100 -52 104 -5 2 -8 12 -8 23 0 10 -4 19 -10 19 -5 0 -10 7 -10
15 0 9 -9 25 -20 37 -11 12 -20 28 -20 35 0 7 -4 13 -10 13 -5 0 -10 5 -10 11
0 12 -60 103 -72 107 -4 2 -8 9 -8 16 0 7 -16 29 -35 50 -19 21 -35 42 -35 45
0 4 -15 23 -33 42 -18 19 -39 44 -47 55 -28 40 -115 129 -180 184 -36 30 -72
62 -80 70 -8 9 -31 27 -50 40 -19 13 -41 30 -48 37 -7 7 -26 20 -42 30 -17 9
-30 21 -30 25 0 4 -6 8 -13 8 -7 0 -23 9 -35 20 -12 11 -24 20 -27 20 -4 0
-25 13 -48 28 -23 16 -62 40 -87 53 -25 13 -47 27 -50 30 -10 11 -212 109
-226 109 -8 0 -14 4 -14 8 0 5 -22 15 -50 22 -27 7 -50 17 -50 22 0 4 -11 8
-23 8 -13 0 -27 3 -31 7 -11 11 -79 33 -103 33 -13 0 -23 4 -23 9 0 9 -33 17
-117 27 -24 4 -43 10 -43 14 0 4 -19 11 -42 14 -45 6 -131 18 -258 37 -79 11
-702 24 -711 14z m511 -1415 c30 -6 75 -14 100 -19 58 -11 214 -63 218 -73 2
-4 12 -8 23 -8 10 0 19 -3 19 -8 0 -4 15 -14 33 -21 110 -49 263 -176 327
-271 13 -19 27 -37 30 -40 19 -18 93 -171 118 -245 27 -80 55 -207 68 -305 23
-181 24 -197 9 -305 -19 -149 -34 -214 -69 -320 -31 -92 -123 -282 -146 -305
-3 -3 -21 -25 -40 -50 -45 -58 -86 -99 -130 -130 -19 -13 -37 -27 -40 -30 -9
-9 -64 -41 -82 -47 -10 -3 -18 -9 -18 -14 0 -5 -9 -9 -20 -9 -11 0 -20 -4 -20
-8 0 -5 -23 -15 -51 -22 -27 -8 -52 -18 -55 -22 -3 -4 -18 -8 -35 -8 -16 0
-37 -4 -47 -9 -16 -9 -42 -14 -187 -41 -71 -13 -440 -8 -530 8 -113 20 -247
59 -253 74 -2 4 -12 8 -23 8 -10 0 -19 5 -19 10 0 6 -7 10 -15 10 -56 0 -261
164 -312 250 -9 16 -20 30 -24 30 -4 0 -12 14 -19 30 -7 17 -16 30 -21 30 -5
0 -9 9 -9 20 0 11 -4 20 -10 20 -5 0 -10 9 -10 20 0 11 -4 20 -10 20 -5 0 -10
9 -10 19 0 11 -3 21 -8 23 -7 3 -59 160 -81 243 -19 76 -26 171 -26 375 1 234
4 261 57 425 19 60 96 226 108 235 4 3 13 16 20 29 37 71 165 193 260 249 25
14 47 30 48 34 2 4 12 8 23 8 10 0 19 5 19 10 0 6 9 10 20 10 11 0 20 3 20 8
0 4 15 12 33 19 17 6 70 25 117 42 47 17 96 31 109 31 14 0 38 4 55 9 99 31
362 37 486 11z"/>
<path d="M44610 8486 c-3 -3 -57 -10 -120 -16 -183 -17 -365 -46 -495 -79 -22
-6 -58 -14 -80 -19 -22 -6 -62 -17 -90 -25 -27 -9 -71 -22 -97 -29 -27 -7 -48
-16 -48 -20 0 -4 -7 -8 -15 -8 -8 0 -34 -9 -57 -19 -24 -11 -58 -26 -75 -33
-18 -7 -33 -16 -33 -20 0 -5 -9 -8 -19 -8 -11 0 -21 -3 -23 -7 -1 -5 -23 -19
-48 -32 -25 -14 -47 -27 -50 -30 -3 -3 -15 -12 -27 -18 -13 -7 -33 -19 -45
-25 -13 -7 -25 -15 -28 -18 -3 -3 -21 -17 -40 -30 -19 -13 -37 -27 -40 -30 -3
-3 -21 -17 -40 -30 -68 -46 -217 -206 -277 -295 -94 -142 -174 -314 -205 -440
-51 -211 -62 -365 -40 -540 16 -126 37 -235 54 -275 6 -14 14 -34 18 -45 31
-81 84 -189 100 -205 3 -3 16 -25 29 -50 14 -25 31 -51 38 -58 7 -7 13 -17 13
-20 0 -4 10 -18 23 -32 12 -14 34 -41 47 -60 32 -45 155 -168 200 -200 19 -13
41 -30 48 -37 7 -7 17 -13 22 -13 5 0 15 -6 22 -13 14 -15 308 -162 368 -186
80 -31 298 -104 335 -113 22 -5 58 -13 80 -19 22 -5 60 -13 85 -19 25 -5 65
-14 90 -20 25 -6 70 -15 100 -20 65 -11 137 -25 203 -40 121 -26 145 -31 192
-40 28 -6 73 -15 100 -20 28 -6 70 -15 95 -20 25 -5 65 -14 90 -20 109 -27
127 -31 163 -37 21 -3 40 -10 43 -14 3 -5 14 -9 26 -9 26 0 250 -75 308 -103
25 -12 60 -36 78 -53 26 -27 32 -39 32 -76 0 -51 -21 -80 -70 -97 -19 -7 -44
-17 -55 -21 -11 -5 -38 -11 -60 -15 -22 -4 -65 -11 -95 -16 -30 -5 -192 -16
-360 -24 -344 -16 -622 -10 -1115 25 -194 14 -327 27 -415 40 -41 6 -111 15
-155 20 -93 11 -214 29 -395 61 -30 6 -74 12 -97 15 -24 4 -43 10 -43 14 0 4
-17 10 -37 13 -39 5 -95 19 -124 31 -14 6 -17 -21 -22 -271 -10 -402 -11
-1062 -2 -1105 5 -27 12 -38 26 -38 10 0 20 -4 23 -9 3 -4 25 -11 48 -15 24
-4 66 -12 93 -17 184 -34 378 -63 525 -80 47 -5 114 -13 150 -18 383 -55 710
-75 1220 -75 450 0 690 24 965 93 22 6 54 13 70 16 17 4 39 10 50 15 11 4 40
14 65 21 25 7 49 16 54 21 6 4 18 8 28 8 10 0 38 9 63 20 25 11 65 29 90 40
25 11 52 20 60 20 8 0 15 5 15 10 0 6 9 10 20 10 11 0 20 5 20 10 0 6 6 10 13
10 18 0 67 24 67 33 0 4 9 7 20 7 11 0 20 5 20 10 0 6 9 10 20 10 11 0 20 3
20 8 0 4 10 12 23 18 45 22 112 59 117 64 3 3 21 17 40 30 19 13 42 31 50 40
8 9 31 27 50 40 44 31 124 111 170 170 19 25 38 47 42 48 5 2 8 9 8 16 0 7 9
22 19 33 11 11 38 58 61 104 23 46 45 91 49 99 4 8 14 36 22 63 7 26 17 47 21
47 4 0 8 11 8 24 0 14 5 28 10 31 6 3 10 17 10 31 0 13 4 32 9 42 13 24 27 85
41 167 6 39 16 96 22 127 13 71 1 265 -27 418 -10 55 -68 235 -77 238 -4 2 -8
12 -8 23 0 10 -4 19 -10 19 -5 0 -10 6 -10 14 0 13 -38 94 -50 106 -3 3 -16
25 -29 50 -14 25 -27 47 -31 50 -3 3 -17 21 -30 40 -30 44 -154 168 -200 200
-19 13 -37 27 -40 30 -3 3 -26 18 -52 33 -26 15 -53 33 -60 40 -20 18 -210
117 -308 160 -19 8 -55 23 -80 34 -25 11 -65 25 -90 32 -25 7 -54 17 -65 21
-11 5 -33 11 -50 15 -16 3 -47 10 -67 15 -95 24 -126 32 -168 40 -25 5 -65 14
-90 20 -25 6 -67 16 -95 21 -27 5 -71 14 -97 19 -27 6 -69 14 -95 20 -27 5
-70 14 -98 20 -27 6 -72 15 -100 20 -27 5 -70 14 -95 20 -25 6 -65 15 -90 20
-25 5 -65 14 -90 20 -58 14 -134 30 -185 37 -22 3 -44 9 -50 14 -5 5 -21 9
-37 9 -15 0 -37 4 -50 9 -13 5 -50 14 -83 21 -125 24 -265 77 -292 110 -16 19
-16 79 -1 111 13 28 68 69 93 69 8 0 15 5 15 10 0 6 7 10 15 10 8 0 23 4 33 9
9 5 35 14 57 19 22 6 58 16 80 22 47 14 836 7 1045 -9 261 -20 565 -56 690
-81 30 -6 78 -15 105 -20 28 -5 75 -14 105 -20 30 -6 80 -15 110 -20 30 -5 73
-14 95 -20 22 -6 57 -16 78 -21 20 -5 56 -14 80 -20 23 -6 61 -13 85 -16 l42
-5 0 710 c0 556 -3 712 -12 720 -7 5 -31 12 -53 15 -22 3 -60 10 -85 16 -76
19 -266 50 -495 81 -44 6 -109 15 -145 20 -98 13 -232 29 -355 41 -60 6 -150
15 -200 20 -100 11 -857 24 -865 15z"/>
<path d="M22974 8439 c-29 -8 -31 -12 -38 -70 -10 -95 -6 -2320 5 -2534 12
-254 31 -403 79 -620 6 -27 14 -65 17 -83 3 -18 9 -35 14 -38 5 -3 9 -14 9
-26 0 -11 18 -75 41 -142 38 -115 53 -153 85 -220 8 -16 14 -35 14 -43 0 -7 5
-13 10 -13 6 0 10 -7 10 -15 0 -14 18 -53 30 -65 3 -3 16 -25 29 -50 13 -25
37 -64 53 -87 15 -23 28 -46 28 -52 0 -6 4 -11 9 -11 5 0 14 -13 21 -30 7 -16
15 -30 19 -30 4 0 14 -12 23 -27 9 -16 26 -39 38 -53 12 -14 34 -41 49 -60 62
-81 222 -248 321 -334 63 -54 253 -186 269 -186 6 0 11 -3 11 -7 0 -5 10 -13
23 -19 12 -6 76 -38 143 -72 67 -34 129 -62 138 -62 9 0 16 -4 16 -10 0 -5 9
-10 19 -10 11 0 23 -4 26 -10 3 -5 14 -10 24 -10 10 0 33 -8 51 -17 19 -9 50
-20 69 -24 20 -4 54 -13 76 -19 102 -29 212 -49 350 -62 191 -18 505 -11 598
12 20 6 54 14 75 19 77 19 127 35 136 43 6 4 18 8 28 8 10 0 26 4 36 9 9 5 73
37 142 71 69 35 127 66 128 71 2 5 12 9 22 9 10 0 20 4 22 8 2 4 24 20 50 35
26 15 53 33 60 40 7 7 29 24 48 37 19 13 64 55 100 92 36 37 69 68 74 68 11 0
-1 -395 -15 -475 -5 -33 -14 -85 -18 -115 -5 -30 -12 -66 -16 -79 -15 -44 -65
-142 -85 -164 -11 -11 -20 -25 -20 -30 0 -5 -8 -17 -18 -26 -9 -9 -29 -32 -43
-51 -37 -49 -75 -88 -139 -140 -30 -25 -61 -51 -68 -57 -7 -7 -17 -13 -22 -13
-5 0 -15 -7 -23 -15 -22 -21 -128 -75 -149 -75 -10 0 -18 -4 -18 -10 0 -5 -13
-10 -29 -10 -17 0 -33 -4 -36 -10 -3 -5 -24 -10 -45 -10 -21 0 -41 -4 -44 -9
-8 -13 -209 -36 -401 -46 -112 -6 -472 15 -595 35 -36 6 -94 15 -130 20 -83
11 -231 40 -310 60 -25 6 -61 14 -80 16 -19 3 -44 9 -55 13 -44 18 -93 31
-113 31 -12 0 -22 5 -22 10 0 6 -7 10 -16 10 -9 0 -43 14 -76 30 -32 17 -63
30 -69 30 -5 0 -19 9 -31 20 -27 25 -43 25 -54 2 -4 -9 -9 -348 -11 -752 l-4
-735 24 -27 c13 -16 29 -28 34 -28 5 0 28 -9 51 -20 22 -11 52 -20 66 -20 14
0 27 -4 30 -9 3 -5 20 -11 38 -14 18 -3 56 -11 83 -17 28 -6 73 -15 100 -21
28 -5 70 -14 95 -19 132 -27 147 -30 350 -60 163 -24 350 -34 660 -34 365 0
502 11 695 54 28 6 67 14 88 17 20 3 40 9 43 14 3 5 14 9 26 9 18 0 123 31
173 51 11 4 49 18 85 30 36 12 70 25 75 29 6 4 31 13 58 21 26 7 47 17 47 21
0 4 6 8 14 8 15 0 159 67 206 96 14 8 33 18 43 21 9 3 17 9 17 14 0 5 7 9 15
9 9 0 25 9 37 20 12 11 28 20 35 20 7 0 13 4 13 9 0 5 14 14 30 21 17 7 30 15
30 19 0 4 13 15 30 24 16 10 35 23 42 30 7 7 29 24 48 37 19 13 42 31 50 40 8
8 39 35 68 59 71 59 128 115 182 181 25 30 50 61 57 68 7 7 20 26 30 42 9 17
20 30 24 30 4 0 12 14 19 30 7 17 16 30 21 30 4 0 11 9 14 20 3 11 12 26 18
33 17 18 47 69 54 90 3 9 9 17 14 17 5 0 9 9 9 19 0 11 4 21 8 23 11 4 112
207 112 224 0 8 5 14 10 14 6 0 10 9 10 20 0 11 4 20 8 20 5 0 15 23 22 51 8
27 18 52 22 55 4 3 8 16 8 29 0 13 5 27 10 30 6 3 10 15 10 26 0 10 4 27 9 37
5 9 15 37 21 62 7 25 16 54 20 65 5 11 13 47 19 80 5 33 13 74 16 90 43 208
48 366 48 1280 -1 1346 -14 4060 -20 4065 -2 3 -344 6 -759 8 l-754 3 0 -1328
c0 -1452 -1 -1472 -62 -1678 -23 -77 -97 -235 -110 -235 -4 0 -8 -6 -8 -13 0
-7 -8 -22 -18 -33 -10 -10 -29 -35 -42 -54 -26 -37 -159 -170 -170 -170 -4 0
-20 -11 -36 -25 -16 -14 -35 -25 -41 -25 -7 0 -13 -4 -13 -10 0 -5 -9 -10 -20
-10 -11 0 -20 -4 -20 -10 0 -5 -6 -10 -13 -10 -8 0 -29 -8 -47 -17 -19 -9 -51
-20 -72 -25 -21 -4 -57 -13 -80 -19 -181 -45 -430 -53 -633 -21 -74 12 -189
44 -193 55 -2 4 -12 7 -23 7 -10 0 -19 5 -19 10 0 6 -6 10 -13 10 -18 0 -67
24 -67 33 0 4 -6 7 -13 7 -7 0 -22 8 -33 18 -10 9 -41 34 -67 55 -56 45 -114
128 -158 224 -17 37 -35 76 -40 85 -5 10 -9 26 -9 36 0 10 -4 22 -8 28 -5 5
-14 36 -21 69 -7 33 -16 76 -21 95 -8 32 -20 120 -36 255 -3 28 -9 637 -13
1355 -4 718 -11 1313 -15 1323 -8 16 -50 17 -725 16 -394 -1 -730 -5 -747 -10z"/>
<path d="M40231 8400 c-8 -36 -11 -788 -11 -2526 0 -2137 2 -2477 14 -2490 13
-12 124 -14 768 -12 l753 3 0 2490 c0 1370 -4 2511 -8 2538 l-8 47 -749 0
-748 0 -11 -50z"/>
<path d="M2175 4673 c-3 -32 -8 -532 -11 -1112 l-5 -1054 148 7 c212 11 368
23 443 36 108 18 162 23 169 13 3 -5 22 -20 41 -33 19 -13 42 -31 50 -40 8 -9
31 -27 50 -40 19 -14 46 -35 60 -47 14 -13 28 -23 32 -23 4 0 18 -11 32 -25
14 -14 29 -25 33 -25 5 0 26 -16 48 -35 22 -19 43 -35 46 -35 4 0 22 -13 40
-30 19 -16 37 -30 41 -30 4 0 13 -6 20 -13 7 -7 29 -24 48 -37 19 -13 44 -32
54 -42 11 -10 26 -18 33 -18 7 0 13 -4 13 -8 0 -4 13 -16 30 -25 16 -10 35
-23 42 -30 7 -7 29 -24 48 -37 19 -13 42 -31 50 -40 24 -26 104 -78 125 -82
19 -3 19 17 23 967 4 975 -3 1241 -32 1263 -6 5 -72 28 -146 52 -74 25 -136
48 -138 52 -2 5 -14 8 -27 8 -13 0 -27 5 -30 10 -3 6 -15 10 -26 10 -10 0 -19
5 -19 10 0 6 -7 10 -15 10 -8 0 -34 8 -58 19 -23 10 -67 28 -97 41 -30 13 -74
31 -97 41 -24 11 -48 19 -53 19 -6 0 -28 8 -49 19 -22 10 -60 24 -85 32 -25 7
-46 17 -46 21 0 4 -10 8 -23 8 -13 0 -27 4 -33 8 -5 4 -27 14 -49 21 -22 7
-51 17 -65 23 -50 21 -66 27 -135 50 -38 13 -71 26 -73 30 -2 5 -14 8 -26 8
-12 0 -26 4 -31 8 -6 4 -28 14 -50 21 -39 12 -53 17 -107 40 -33 13 -69 28
-100 40 -13 5 -36 14 -51 20 -15 6 -30 11 -32 11 -2 0 -6 -26 -10 -57z"/>
</g>
</svg>
