<?xml version="1.0" standalone="no"?>
<!DOCTYPE svg PUBLIC "-//W3C//DTD SVG 20010904//EN"
 "http://www.w3.org/TR/2001/REC-SVG-20010904/DTD/svg10.dtd">
<svg version="1.0" xmlns="http://www.w3.org/2000/svg"
 width="512.000000pt" height="512.000000pt" viewBox="0 0 512.000000 512.000000"
 preserveAspectRatio="xMidYMid meet">

<g transform="translate(0.000000,512.000000) scale(0.100000,-0.100000)"
fill="#000000" stroke="none">
<path d="M78 4489 c-23 -12 -46 -35 -58 -59 -19 -37 -20 -58 -20 -470 0 -412
1 -433 20 -470 13 -26 34 -47 60 -60 37 -19 58 -20 470 -20 412 0 433 1 470
20 26 13 47 34 60 60 19 37 20 58 20 470 0 412 -1 433 -20 470 -13 26 -34 47
-60 60 -38 19 -58 20 -472 20 -411 -1 -435 -2 -470 -21z"/>
<path d="M1478 4489 c-23 -12 -46 -35 -58 -59 -19 -37 -20 -58 -20 -470 0
-412 1 -433 20 -470 13 -26 34 -47 60 -60 39 -20 55 -20 1780 -20 1725 0 1741
0 1780 20 26 13 47 34 60 60 19 37 20 58 20 470 0 412 -1 433 -20 470 -13 26
-34 47 -60 60 -39 20 -55 20 -1782 20 -1716 -1 -1744 -1 -1780 -21z"/>
<path d="M78 3089 c-23 -12 -46 -35 -58 -59 -19 -37 -20 -58 -20 -470 0 -412
1 -433 20 -470 13 -26 34 -47 60 -60 37 -19 58 -20 470 -20 412 0 433 1 470
20 26 13 47 34 60 60 19 37 20 58 20 470 0 412 -1 433 -20 470 -13 26 -34 47
-60 60 -38 19 -58 20 -472 20 -411 -1 -435 -2 -470 -21z"/>
<path d="M1478 3089 c-23 -12 -46 -35 -58 -59 -19 -37 -20 -58 -20 -470 0
-412 1 -433 20 -470 13 -26 34 -47 60 -60 39 -20 55 -20 1780 -20 1725 0 1741
0 1780 20 26 13 47 34 60 60 19 37 20 58 20 470 0 412 -1 433 -20 470 -13 26
-34 47 -60 60 -39 20 -55 20 -1782 20 -1716 -1 -1744 -1 -1780 -21z"/>
<path d="M78 1689 c-23 -12 -46 -35 -58 -59 -19 -37 -20 -58 -20 -470 0 -412
1 -433 20 -470 13 -26 34 -47 60 -60 37 -19 58 -20 470 -20 412 0 433 1 470
20 26 13 47 34 60 60 19 37 20 58 20 470 0 412 -1 433 -20 470 -13 26 -34 47
-60 60 -38 19 -58 20 -472 20 -411 -1 -435 -2 -470 -21z"/>
<path d="M1478 1689 c-23 -12 -46 -35 -58 -59 -19 -37 -20 -58 -20 -470 0
-412 1 -433 20 -470 13 -26 34 -47 60 -60 39 -20 55 -20 1780 -20 1725 0 1741
0 1780 20 26 13 47 34 60 60 19 37 20 58 20 470 0 412 -1 433 -20 470 -13 26
-34 47 -60 60 -39 20 -55 20 -1782 20 -1716 -1 -1744 -1 -1780 -21z"/>
</g>
</svg>
