<?xml version="1.0" standalone="no"?>
<!DOCTYPE svg PUBLIC "-//W3C//DTD SVG 20010904//EN"
 "http://www.w3.org/TR/2001/REC-SVG-20010904/DTD/svg10.dtd">
<svg version="1.0" xmlns="http://www.w3.org/2000/svg"
 width="512.000000pt" height="512.000000pt" viewBox="0 0 512.000000 512.000000"
 preserveAspectRatio="xMidYMid meet">

<g transform="translate(0.000000,512.000000) scale(0.100000,-0.100000)"
fill="#000000" stroke="none">
<path d="M1140 2926 c-73 -20 -122 -48 -172 -97 -145 -145 -151 -366 -13 -526
48 -56 159 -111 241 -119 158 -16 312 74 382 224 23 49 27 70 27 152 0 82 -4
103 -27 152 -80 171 -266 262 -438 214z"/>
<path d="M2460 2925 c-113 -32 -220 -130 -256 -237 -24 -69 -24 -186 -1 -253
89 -256 428 -336 617 -146 158 158 158 384 0 542 -91 91 -234 129 -360 94z"/>
<path d="M3778 2921 c-31 -10 -72 -28 -91 -40 -52 -32 -116 -106 -145 -169
-23 -49 -27 -70 -27 -152 0 -88 3 -101 33 -162 67 -137 188 -212 343 -213 79
0 91 3 162 38 115 57 184 148 207 275 49 272 -219 507 -482 423z"/>
</g>
</svg>
