<?xml version="1.0" standalone="no"?>
<!DOCTYPE svg PUBLIC "-//W3C//DTD SVG 20010904//EN"
 "http://www.w3.org/TR/2001/REC-SVG-20010904/DTD/svg10.dtd">
<svg version="1.0" xmlns="http://www.w3.org/2000/svg"
 width="512.000000pt" height="512.000000pt" viewBox="0 0 512.000000 512.000000"
 preserveAspectRatio="xMidYMid meet">

<g transform="translate(0.000000,512.000000) scale(0.100000,-0.100000)"
fill="#000000" stroke="none">
<path d="M3731 4260 c-237 -33 -469 -177 -601 -373 -38 -58 -95 -179 -105
-224 l-7 -33 -1216 -2 -1217 -3 -40 -22 c-77 -41 -115 -105 -115 -193 0 -84
53 -161 132 -194 33 -14 176 -16 1247 -16 l1209 0 6 -34 c4 -18 26 -73 50
-122 240 -493 859 -635 1297 -298 125 96 243 272 289 434 49 169 36 395 -32
558 -64 155 -209 325 -344 404 -167 98 -377 142 -553 118z m212 -435 c84 -22
134 -51 197 -114 164 -164 168 -418 9 -586 -88 -93 -185 -135 -311 -135 -122
0 -224 46 -311 139 -148 159 -150 405 -3 568 107 118 269 167 419 128z"/>
<path d="M1125 2545 c-141 -27 -263 -83 -376 -173 -345 -273 -422 -764 -180
-1135 75 -114 199 -224 322 -286 145 -72 233 -93 389 -93 154 0 242 21 387 92
164 81 309 231 387 402 19 40 37 88 41 105 l7 33 1216 2 1217 3 45 25 c67 38
103 96 108 174 5 71 -14 120 -65 168 -64 61 13 58 -1312 58 l-1209 0 -6 34
c-11 59 -91 209 -153 286 -193 243 -514 362 -818 305z m276 -431 c76 -23 128
-56 188 -119 159 -168 155 -422 -10 -588 -168 -168 -430 -167 -600 2 -127 128
-159 312 -84 478 26 59 101 144 157 179 96 61 239 81 349 48z"/>
</g>
</svg>
